<?xml version="1.0" encoding="UTF-8" standalone="no"?>
<svg
   xmlns:dc="http://purl.org/dc/elements/1.1/"
   xmlns:cc="http://creativecommons.org/ns#"
   xmlns:rdf="http://www.w3.org/1999/02/22-rdf-syntax-ns#"
   xmlns:svg="http://www.w3.org/2000/svg"
   xmlns="http://www.w3.org/2000/svg"
   viewBox="0 0 1020 1110"
   height="1110"
   width="1020"
   version="1.1"
   id="svg12811">
  <metadata
     id="metadata12817">
    <rdf:RDF>
      <cc:Work
         rdf:about="">
        <dc:format>image/svg+xml</dc:format>
        <dc:type
           rdf:resource="http://purl.org/dc/dcmitype/StillImage" />
        <dc:title></dc:title>
      </cc:Work>
    </rdf:RDF>
  </metadata>
  <defs
     id="defs12815" />
  <g
     id="g12821">
    <path
       id="path12825"
       d="M 0,555 0,0 l 510,0 510,0 0,555 0,555 -510,0 -510,0 0,-555 z"
       style="fill:#fcfcfc" />
    <path
       id="path12823"
       d="m 756.875,1050.7005 c -44.11308,-8.6264 -104.92321,-29.6953 -191.02188,-66.18334 -25.93303,-10.99024 -30.67801,-13.72596 -54.61664,-31.4893 -9.81823,-7.28547 -18.56084,-13.5186 -19.42803,-13.85137 -0.8672,-0.33277 -7.95699,1.91067 -15.75509,4.98542 -47.37306,18.67898 -149.0423,48.00488 -186.67836,53.8463 -6.1875,0.96035 -15.72975,2.93419 -21.205,4.38619 -23.37686,6.1997 -61.24395,8.0961 -90.67,4.5408 -61.96595,-7.48679 -71.34761,-9.39195 -88.2203,-17.91515 C 58.738959,973.59246 31.893455,932.42777 27.572252,894.39832 24.935384,871.19214 29.790805,839.33887 40.685486,808.37094 56.09125,764.58031 70.23911,739.43964 118.90513,669.375 c 65.18448,-93.84632 80.91008,-116.86114 100.78402,-147.5 33.92329,-52.29819 49.71221,-86.13115 56.00072,-120 6.65418,-35.83833 -6.60167,-53.92391 -41.39303,-56.47444 -11.67342,-0.85576 -23.42858,0.89224 -36.11494,5.37034 -25.30816,8.93341 -52.1898,12.77894 -63.30788,9.05647 -12.07546,-4.04302 -16.79774,-12.48807 -15.87699,-28.39351 0.46369,-8.01 1.41915,-11.6447 5.09673,-19.38862 2.48933,-5.24182 6.32718,-12.20575 8.52855,-15.47542 2.20138,-3.26965 25.20745,-27.31982 51.12461,-53.44482 25.91717,-26.125 49.67839,-50.875 52.80273,-55 12.3006,-16.24026 34.20092,-35.17715 60.32535,-52.16244 43.17079,-28.06828 75.70512,-44.365521 100.50272,-50.344251 16.21324,-3.909029 49.87417,-0.248239 75.06035,8.16318 41.6791,13.919551 87.36589,45.929141 123.43555,86.482771 16.95433,19.06201 17.84442,19.98023 18.892,19.48908 0.47266,-0.2216 6.20313,-3.01415 12.73438,-6.20565 6.53125,-3.19152 25.65625,-11.41447 42.5,-18.27324 39.15718,-15.94479 56.68371,-23.88174 69.28066,-31.37398 28.39373,-16.88762 46.88321,-26.38865 73.01901,-37.52166 45.08042,-19.202807 96.54599,-31.134646 113.90502,-26.407877 6.99227,1.903958 14.29427,8.993996 16.15108,15.68225 1.93501,6.969907 1.72898,17.765847 -0.48106,25.207827 -1.0314,3.47312 -2.74486,11.30959 -3.8077,17.41438 -4.72267,27.12662 -20.31628,70.19922 -40.90027,112.97461 -4.79708,9.96875 -11.7837,24.875 -15.52585,33.125 -3.74215,8.25 -11.3164,23.62149 -16.83168,34.15885 -14.21018,27.14971 -25.31198,60.00054 -39.87072,117.97957 -14.10836,56.18548 -18.8641,137.00304 -9.75394,165.75528 1.29504,4.08725 10.75938,11.88848 32.94045,27.15201 8.04225,5.53414 39.31518,29.54023 50.625,38.86134 10.50241,8.65567 26.27965,24.38731 42.34553,42.22309 15.51021,17.21893 41.69443,48.15395 44.96648,53.12508 1.57853,2.3982 1.98665,6.81672 2.02053,21.875 0.0365,16.21976 -0.29074,19.48185 -2.33014,23.22814 -3.86341,7.09693 -10.89785,14.77893 -15.02589,16.4091 -4.67315,1.84544 -46.98527,43.35166 -46.95513,46.06082 0.0113,1.05694 4.55963,6.60823 10.1064,12.33621 C 944.76396,894.78131 947.5,899.5938 947.5,907.5 c 0,9.81489 -5.74428,19.01135 -17.26626,27.64295 -3.90981,2.929 -29.04624,27.08259 -55.85874,53.67464 l -48.75,48.34921 -16.25,7.9791 c -15.7713,7.7441 -16.563,7.9866 -26.875,8.2335 -7.00279,0.1677 -15.73871,-0.7456 -25.625,-2.6789 z M 877.8816,898.6652 c 2.61613,-0.72648 5.04144,-2.06315 5.38957,-2.97038 0.34814,-0.90722 -8.50821,-14.23157 -19.68076,-29.60966 -26.5369,-36.52581 -37.47798,-52.96061 -44.41075,-66.71016 -5.43524,-10.77954 -5.6495,-11.61591 -5.12366,-20 1.22958,-19.6046 13.46425,-30.13199 36.569,-31.46594 9.54661,-0.55118 10.82177,-0.28577 28.125,5.85381 30.42161,10.79429 43.62503,15.01783 49.43943,15.81478 5.20202,0.71301 5.56057,0.57515 5.56057,-2.13809 0,-8.15991 -12.73541,-23.60845 -31.69199,-38.44355 -5.39934,-4.22543 -37.31129,-26.91001 -70.91542,-50.41016 -33.60414,-23.50015 -61.37724,-43.6238 -61.71799,-44.7192 -5.32174,-17.10754 -6.54274,-118.7531 -1.92603,-160.33645 6.17057,-55.57895 17.40528,-102.07984 34.50579,-142.82074 7.25413,-17.28254 27.28154,-56.06803 44.2572,-85.70946 16.62295,-29.02555 22.01969,-39.85726 26.15737,-52.5 2.65891,-8.12439 18.83107,-66.49712 18.83107,-67.96999 0,-1.72532 -4.40001,-0.51481 -18.19596,5.00598 -28.56144,11.42957 -58.4004,26.94268 -107.42904,55.85175 -33.70313,19.87258 -50.72267,28.87736 -83.23804,44.03997 -26.13809,12.18875 -42.79006,21.6542 -44.8429,25.48997 -0.65741,1.22838 -2.07576,9.76506 -3.15188,18.97037 -4.49357,38.43851 -4.57964,38.79861 -16.42854,68.72795 l -11.08864,28.009 0.25492,18.41474 c 0.1402,10.1281 0.85122,26.15935 1.58003,35.625 0.72881,9.46564 1.60375,29.02276 1.94431,43.46026 1.28779,54.59284 3.30336,97.84801 5.00921,107.5 0.97204,5.5 3.50568,25.55895 5.63029,44.57545 4.21423,37.71966 4.07587,41.19739 -1.92278,48.32638 -3.63283,4.31736 -12.56288,8.3352 -21.24598,9.55904 -3.4375,0.48451 -9.43866,1.94772 -13.33592,3.25159 -6.34893,2.1241 -8.68916,2.24519 -22.5,1.16419 -18.54479,-1.45154 -33.63978,-4.02516 -47.97668,-8.17984 -11.583,-3.35662 -27.00883,-10.54778 -31.52249,-14.69507 -11.01289,-10.11895 -9.34239,-56.14364 3.50345,-96.52534 6.03625,-18.97534 38.46934,-98.47511 73.67895,-180.6014 29.06104,-67.78475 36.03506,-89.52093 32.68705,-101.87673 -2.57294,-9.49533 -10.56821,-20.90741 -24.53436,-35.01917 -14.79001,-14.94423 -62.40095,-57.24404 -78.75,-69.96525 -35.14073,-27.34303 -65.89611,-41.15554 -86.77366,-38.97081 -15.72829,1.64587 -36.87029,9.18193 -64.93934,23.1476 -17.00433,8.46043 -21.76491,11.59271 -41.41166,27.24715 -12.20925,9.72828 -22.58098,18.30641 -23.04827,19.0625 -1.49647,2.42133 6.62004,1.55507 33.11595,-3.53445 14.05634,-2.70004 33.15073,-5.46763 42.43198,-6.15022 l 16.875,-1.24106 12.5,5.59751 c 6.875,3.07863 13.43059,6.54935 14.56799,7.71272 1.13738,1.16336 8.64588,12.80271 16.68553,25.86521 l 14.61755,23.75 -0.7685,12.40409 c -2.65902,42.91809 -23.84122,98.32795 -59.5293,155.72091 -10.21421,16.42631 -38.93308,60.31364 -89.56791,136.875 -59.09851,89.35869 -75.6144,116.97555 -88.21042,147.5 -10.18422,24.67984 -12.73767,38.0266 -11.79348,61.64411 1.90615,47.67948 16.44195,69.98408 51.49854,79.02242 33.83616,8.72367 129.146,4.97967 189.5323,-7.44529 57.75208,-11.88295 101.79554,-28.83272 164.18264,-63.18432 11.89851,-6.55156 22.5583,-11.91192 23.68841,-11.91192 5.72012,0 15.81015,7.48253 34.53894,25.61326 21.42086,20.73685 32.21596,29.82858 44.93271,37.84273 13.2107,8.32543 121.8863,55.0797 147.47221,63.44528 12.32238,4.02894 38.35638,5.6667 47.90939,3.01393 z"
       style="fill:#030303" />
  </g>
</svg>
